<svg xmlns="http://www.w3.org/2000/svg" xmlns:xlink="http://www.w3.org/1999/xlink" width="0" height="0" style="display:none;"><symbol viewBox="0 0 24 24" id="twitter-x-fill"><path d="M18.2048 2.25H21.5128L14.2858 10.51L22.7878 21.75H16.1308L10.9168 14.933L4.95084 21.75H1.64084L9.37084 12.915L1.21484 2.25H8.04084L12.7538 8.481L18.2048 2.25ZM17.0438 19.77H18.8768L7.04484 4.126H5.07784L17.0438 19.77Z"></path></symbol><symbol viewBox="0 0 24 24" id="linkedin-fill"><path d="M6.94048 4.99993C6.94011 5.81424 6.44608 6.54702 5.69134 6.85273C4.9366 7.15845 4.07187 6.97605 3.5049 6.39155C2.93793 5.80704 2.78195 4.93715 3.1105 4.19207C3.43906 3.44699 4.18654 2.9755 5.00048 2.99993C6.08155 3.03238 6.94097 3.91837 6.94048 4.99993ZM7.00048 8.47993H3.00048V20.9999H7.00048V8.47993ZM13.3205 8.47993H9.34048V20.9999H13.2805V14.4299C13.2805 10.7699 18.0505 10.4299 18.0505 14.4299V20.9999H22.0005V13.0699C22.0005 6.89993 14.9405 7.12993 13.2805 10.1599L13.3205 8.47993Z"></path></symbol><symbol viewBox="0 0 24 24" id="instagram-line"><path d="M12.001 9C10.3436 9 9.00098 10.3431 9.00098 12C9.00098 13.6573 10.3441 15 12.001 15C13.6583 15 15.001 13.6569 15.001 12C15.001 10.3427 13.6579 9 12.001 9ZM12.001 7C14.7614 7 17.001 9.2371 17.001 12C17.001 14.7605 14.7639 17 12.001 17C9.24051 17 7.00098 14.7629 7.00098 12C7.00098 9.23953 9.23808 7 12.001 7ZM18.501 6.74915C18.501 7.43926 17.9402 7.99917 17.251 7.99917C16.5609 7.99917 16.001 7.4384 16.001 6.74915C16.001 6.0599 16.5617 5.5 17.251 5.5C17.9393 5.49913 18.501 6.0599 18.501 6.74915ZM12.001 4C9.5265 4 9.12318 4.00655 7.97227 4.0578C7.18815 4.09461 6.66253 4.20007 6.17416 4.38967C5.74016 4.55799 5.42709 4.75898 5.09352 5.09255C4.75867 5.4274 4.55804 5.73963 4.3904 6.17383C4.20036 6.66332 4.09493 7.18811 4.05878 7.97115C4.00703 9.0752 4.00098 9.46105 4.00098 12C4.00098 14.4745 4.00753 14.8778 4.05877 16.0286C4.0956 16.8124 4.2012 17.3388 4.39034 17.826C4.5591 18.2606 4.7605 18.5744 5.09246 18.9064C5.42863 19.2421 5.74179 19.4434 6.17187 19.6094C6.66619 19.8005 7.19148 19.9061 7.97212 19.9422C9.07618 19.9939 9.46203 20 12.001 20C14.4755 20 14.8788 19.9934 16.0296 19.9422C16.8117 19.9055 17.3385 19.7996 17.827 19.6106C18.2604 19.4423 18.5752 19.2402 18.9074 18.9085C19.2436 18.5718 19.4445 18.2594 19.6107 17.8283C19.8013 17.3358 19.9071 16.8098 19.9432 16.0289C19.9949 14.9248 20.001 14.5389 20.001 12C20.001 9.52552 19.9944 9.12221 19.9432 7.97137C19.9064 7.18906 19.8005 6.66149 19.6113 6.17318C19.4434 5.74038 19.2417 5.42635 18.9084 5.09255C18.573 4.75715 18.2616 4.55693 17.8271 4.38942C17.338 4.19954 16.8124 4.09396 16.0298 4.05781C14.9258 4.00605 14.5399 4 12.001 4ZM12.001 2C14.7176 2 15.0568 2.01 16.1235 2.06C17.1876 2.10917 17.9135 2.2775 18.551 2.525C19.2101 2.77917 19.7668 3.1225 20.3226 3.67833C20.8776 4.23417 21.221 4.7925 21.476 5.45C21.7226 6.08667 21.891 6.81333 21.941 7.8775C21.9885 8.94417 22.001 9.28333 22.001 12C22.001 14.7167 21.991 15.0558 21.941 16.1225C21.8918 17.1867 21.7226 17.9125 21.476 18.55C21.2218 19.2092 20.8776 19.7658 20.3226 20.3217C19.7668 20.8767 19.2076 21.22 18.551 21.475C17.9135 21.7217 17.1876 21.89 16.1235 21.94C15.0568 21.9875 14.7176 22 12.001 22C9.28431 22 8.94514 21.99 7.87848 21.94C6.81431 21.8908 6.08931 21.7217 5.45098 21.475C4.79264 21.2208 4.23514 20.8767 3.67931 20.3217C3.12348 19.7658 2.78098 19.2067 2.52598 18.55C2.27848 17.9125 2.11098 17.1867 2.06098 16.1225C2.01348 15.0558 2.00098 14.7167 2.00098 12C2.00098 9.28333 2.01098 8.94417 2.06098 7.8775C2.11014 6.8125 2.27848 6.0875 2.52598 5.45C2.78014 4.79167 3.12348 4.23417 3.67931 3.67833C4.23514 3.1225 4.79348 2.78 5.45098 2.525C6.08848 2.2775 6.81348 2.11 7.87848 2.06C8.94514 2.0125 9.28431 2 12.001 2Z"></path></symbol><symbol viewBox="0 0 24 24" id="youtube-fill"><path d="M12.2439 4C12.778 4.00294 14.1143 4.01586 15.5341 4.07273L16.0375 4.09468C17.467 4.16236 18.8953 4.27798 19.6037 4.4755C20.5486 4.74095 21.2913 5.5155 21.5423 6.49732C21.942 8.05641 21.992 11.0994 21.9982 11.8358L21.9991 11.9884L21.9991 11.9991C21.9991 11.9991 21.9991 12.0028 21.9991 12.0099L21.9982 12.1625C21.992 12.8989 21.942 15.9419 21.5423 17.501C21.2878 18.4864 20.5451 19.261 19.6037 19.5228C18.8953 19.7203 17.467 19.8359 16.0375 19.9036L15.5341 19.9255C14.1143 19.9824 12.778 19.9953 12.2439 19.9983L12.0095 19.9991L11.9991 19.9991C11.9991 19.9991 11.9956 19.9991 11.9887 19.9991L11.7545 19.9983C10.6241 19.9921 5.89772 19.941 4.39451 19.5228C3.4496 19.2573 2.70692 18.4828 2.45587 17.501C2.0562 15.9419 2.00624 12.8989 2 12.1625V11.8358C2.00624 11.0994 2.0562 8.05641 2.45587 6.49732C2.7104 5.51186 3.45308 4.73732 4.39451 4.4755C5.89772 4.05723 10.6241 4.00622 11.7545 4H12.2439ZM9.99911 8.49914V15.4991L15.9991 11.9991L9.99911 8.49914Z"></path></symbol><symbol viewBox="0 0 24 24" id="menu-line"><path d="M3 4H21V6H3V4ZM3 11H21V13H3V11ZM3 18H21V20H3V18Z"></path></symbol><symbol viewBox="0 0 24 24" id="close-large-line"><path d="M10.5859 12L2.79297 4.20706L4.20718 2.79285L12.0001 10.5857L19.793 2.79285L21.2072 4.20706L13.4143 12L21.2072 19.7928L19.793 21.2071L12.0001 13.4142L4.20718 21.2071L2.79297 19.7928L10.5859 12Z"></path></symbol><symbol viewBox="0 0 24 24" id="arrow-left-wide-line"><path d="M8.36853 12L13.1162 3.03212L14.8838 3.9679L10.6315 12L14.8838 20.0321L13.1162 20.9679L8.36853 12Z"></path></symbol><symbol viewBox="0 0 24 24" id="arrow-right-wide-line"><path d="M15.6315 12L10.8838 3.03212L9.11622 3.9679L13.3685 12L9.11622 20.0321L10.8838 20.9679L15.6315 12Z"></path></symbol><symbol viewBox="0 0 24 24" id="arrow-down-wide-line"><path d="M12 15.6315L20.9679 10.8838L20.0321 9.11619L12 13.3685L3.96788 9.11619L3.0321 10.8838L12 15.6315Z"></path></symbol><symbol viewBox="0 0 24 24" id="arrow-up-wide-line"><path d="M12 8.36853L20.9679 13.1162L20.0321 14.8838L12 10.6315L3.96788 14.8838L3.0321 13.1162L12 8.36853Z"></path></symbol><symbol viewBox="0 0 24 24" id="zoom-in-line"><path d="M18.031 16.6168L22.3137 20.8995L20.8995 22.3137L16.6168 18.031C15.0769 19.263 13.124 20 11 20C6.032 20 2 15.968 2 11C2 6.032 6.032 2 11 2C15.968 2 20 6.032 20 11C20 13.124 19.263 15.0769 18.031 16.6168ZM16.0247 15.8748C17.2475 14.6146 18 12.8956 18 11C18 7.1325 14.8675 4 11 4C7.1325 4 4 7.1325 4 11C4 14.8675 7.1325 18 11 18C12.8956 18 14.6146 17.2475 15.8748 16.0247L16.0247 15.8748ZM10 10V7H12V10H15V12H12V15H10V12H7V10H10Z"></path></symbol><symbol viewBox="0 0 24 24" id="download-line"><path d="M3 19H21V21H3V19ZM13 13.1716L19.0711 7.1005L20.4853 8.51472L12 17L3.51472 8.51472L4.92893 7.1005L11 13.1716V2H13V13.1716Z"></path></symbol><symbol viewBox="0 0 24 24" id="file-download-line"><path d="M13 12H16L12 16L8 12H11V8H13V12ZM15 4H5V20H19V8H15V4ZM3 2.9918C3 2.44405 3.44749 2 3.9985 2H16L20.9997 7L21 20.9925C21 21.5489 20.5551 22 20.0066 22H3.9934C3.44476 22 3 21.5447 3 21.0082V2.9918Z"></path></symbol><symbol viewBox="0 0 24 24" id="download-2-line"><path d="M13 10H18L12 16L6 10H11V3H13V10ZM4 19H20V12H22V20C22 20.5523 21.5523 21 21 21H3C2.44772 21 2 20.5523 2 20V12H4V19Z"></path></symbol><symbol viewBox="0 0 24 24" id="news-line"><path d="M2 4C2 3.44772 2.44772 3 3 3H21C21.5523 3 22 3.44772 22 4V20C22 20.5523 21.5523 21 21 21H3C2.44772 21 2 20.5523 2 20V4ZM4 5V19H20V5H4ZM6 7H12V13H6V7ZM8 9V11H10V9H8ZM14 9H18V7H14V9ZM18 13H14V11H18V13ZM6 15V17L18 17V15L6 15Z"></path></symbol><symbol viewBox="0 0 24 24" id="loader-line"><path d="M11.9995 2C12.5518 2 12.9995 2.44772 12.9995 3V6C12.9995 6.55228 12.5518 7 11.9995 7C11.4472 7 10.9995 6.55228 10.9995 6V3C10.9995 2.44772 11.4472 2 11.9995 2ZM11.9995 17C12.5518 17 12.9995 17.4477 12.9995 18V21C12.9995 21.5523 12.5518 22 11.9995 22C11.4472 22 10.9995 21.5523 10.9995 21V18C10.9995 17.4477 11.4472 17 11.9995 17ZM20.6597 7C20.9359 7.47829 20.772 8.08988 20.2937 8.36602L17.6956 9.86602C17.2173 10.1422 16.6057 9.97829 16.3296 9.5C16.0535 9.02171 16.2173 8.41012 16.6956 8.13398L19.2937 6.63397C19.772 6.35783 20.3836 6.52171 20.6597 7ZM7.66935 14.5C7.94549 14.9783 7.78161 15.5899 7.30332 15.866L4.70525 17.366C4.22695 17.6422 3.61536 17.4783 3.33922 17C3.06308 16.5217 3.22695 15.9101 3.70525 15.634L6.30332 14.134C6.78161 13.8578 7.3932 14.0217 7.66935 14.5ZM20.6597 17C20.3836 17.4783 19.772 17.6422 19.2937 17.366L16.6956 15.866C16.2173 15.5899 16.0535 14.9783 16.3296 14.5C16.6057 14.0217 17.2173 13.8578 17.6956 14.134L20.2937 15.634C20.772 15.9101 20.9359 16.5217 20.6597 17ZM7.66935 9.5C7.3932 9.97829 6.78161 10.1422 6.30332 9.86602L3.70525 8.36602C3.22695 8.08988 3.06308 7.47829 3.33922 7C3.61536 6.52171 4.22695 6.35783 4.70525 6.63397L7.30332 8.13398C7.78161 8.41012 7.94549 9.02171 7.66935 9.5Z"></path></symbol><symbol viewBox="0 0 24 24" id="arrow-left-double-line"><path d="M4.83578 12L11.0429 18.2071L12.4571 16.7929L7.66421 12L12.4571 7.20712L11.0429 5.79291L4.83578 12ZM10.4857 12L16.6928 18.2071L18.107 16.7929L13.3141 12L18.107 7.20712L16.6928 5.79291L10.4857 12Z"></path></symbol><symbol viewBox="0 0 24 24" id="arrow-right-double-line"><path d="M19.1642 12L12.9571 5.79291L11.5429 7.20712L16.3358 12L11.5429 16.7929L12.9571 18.2071L19.1642 12ZM13.5143 12L7.30722 5.79291L5.89301 7.20712L10.6859 12L5.89301 16.7929L7.30722 18.2071L13.5143 12Z"></path></symbol><symbol viewBox="0 0 24 24" id="check-fill"><path d="M9.9997 15.1709L19.1921 5.97852L20.6063 7.39273L9.9997 17.9993L3.63574 11.6354L5.04996 10.2212L9.9997 15.1709Z"></path></symbol><symbol viewBox="0 0 24 24" id="close-large-fill"><path d="M10.5859 12L2.79297 4.20706L4.20718 2.79285L12.0001 10.5857L19.793 2.79285L21.2072 4.20706L13.4143 12L21.2072 19.7928L19.793 21.2071L12.0001 13.4142L4.20718 21.2071L2.79297 19.7928L10.5859 12Z"></path></symbol><symbol viewBox="0 0 24 24" id="external-link-line"><path d="M10 6V8H5V19H16V14H18V20C18 20.5523 17.5523 21 17 21H4C3.44772 21 3 20.5523 3 20V7C3 6.44772 3.44772 6 4 6H10ZM21 3V11H19L18.9999 6.413L11.2071 14.2071L9.79289 12.7929L17.5849 5H13V3H21Z"></path></symbol></svg>